<?xml version="1.0" encoding="UTF-8"?>
<!DOCTYPE svg PUBLIC "-//W3C//DTD SVG 1.1//EN" "http://www.w3.org/Graphics/SVG/1.1/DTD/svg11.dtd">
<svg xmlns="http://www.w3.org/2000/svg" version="1.1" width="368px" height="128px" style="shape-rendering:geometricPrecision; text-rendering:geometricPrecision; image-rendering:optimizeQuality; fill-rule:evenodd; clip-rule:evenodd" xmlns:xlink="http://www.w3.org/1999/xlink">
<g><path style="opacity:1" fill="#fdfdfd" d="M -0.5,-0.5 C 122.167,-0.5 244.833,-0.5 367.5,-0.5C 367.5,42.1667 367.5,84.8333 367.5,127.5C 244.833,127.5 122.167,127.5 -0.5,127.5C -0.5,84.8333 -0.5,42.1667 -0.5,-0.5 Z"/></g>
<g><path style="opacity:1" fill="#17bfde" d="M 92.5,22.5 C 90.5,23.5 88.5,24.5 86.5,25.5C 72.7033,17.459 60.3699,19.2924 49.5,31C 44.5645,31.7671 41.8978,34.6004 41.5,39.5C 40.7777,38.4489 39.7777,37.7822 38.5,37.5C 45.3001,20.2632 57.9667,12.4298 76.5,14C 82.9019,15.0316 88.2352,17.8649 92.5,22.5 Z"/></g>
<g><path style="opacity:1" fill="#13a3d8" d="M 92.5,22.5 C 97.3444,26.8485 100.678,32.1818 102.5,38.5C 101.609,37.8902 100.609,37.5569 99.5,37.5C 97.8759,33.5083 94.8759,31.175 90.5,30.5C 89.1431,28.8144 87.8098,27.1477 86.5,25.5C 88.5,24.5 90.5,23.5 92.5,22.5 Z"/></g>
<g><path style="opacity:1" fill="#1e9bc6" d="M 77.5,30.5 C 77.5,30.1667 77.5,29.8333 77.5,29.5C 80.0679,28.5504 82.5679,28.5504 85,29.5C 85.6378,32.9301 84.1378,34.2634 80.5,33.5C 80.5,32.5 80.5,31.5 80.5,30.5C 79.5,30.5 78.5,30.5 77.5,30.5 Z"/></g>
<g><path style="opacity:1" fill="#fafbf8" d="M 63.5,30.5 C 63.5,32.1667 63.5,33.8333 63.5,35.5C 60.549,36.3529 57.549,37.3529 54.5,38.5C 54.5,37.8333 54.1667,37.5 53.5,37.5C 53.4431,36.391 53.1098,35.391 52.5,34.5C 54.7638,33.7814 57.0971,33.448 59.5,33.5C 59.5,32.5 59.5,31.5 59.5,30.5C 60.8333,30.5 62.1667,30.5 63.5,30.5 Z"/></g>
<g><path style="opacity:1" fill="#30b8be" d="M 63.5,28.5 C 63.5,29.1667 63.5,29.8333 63.5,30.5C 62.1667,30.5 60.8333,30.5 59.5,30.5C 59.5,31.5 59.5,32.5 59.5,33.5C 57.0971,33.448 54.7638,33.7814 52.5,34.5C 53.7772,32.8516 54.7772,31.0183 55.5,29C 58.2227,29.518 60.8894,29.3513 63.5,28.5 Z"/></g>
<g><path style="opacity:1" fill="#e61655" d="M 77.5,29.5 C 77.5,29.8333 77.5,30.1667 77.5,30.5C 77.5387,35.4772 79.872,37.6439 84.5,37C 86.0074,37.8373 86.5074,39.0039 86,40.5C 82.8472,41.7859 80.1805,43.7859 78,46.5C 79.5818,44.1762 80.2485,41.5095 80,38.5C 79.2613,37.4258 78.2613,36.7591 77,36.5C 74.9534,37.6094 72.7867,38.2761 70.5,38.5C 70.4733,46.3936 69.8066,46.3936 68.5,38.5C 66.6396,37.7401 64.973,36.7401 63.5,35.5C 63.5,33.8333 63.5,32.1667 63.5,30.5C 63.5,29.8333 63.5,29.1667 63.5,28.5C 68.6928,21.6325 73.3595,21.9658 77.5,29.5 Z"/></g>
<g><path style="opacity:1" fill="#dd7199" d="M 69.5,30.5 C 70.1667,30.5 70.8333,30.5 71.5,30.5C 72.347,31.9663 73.6803,32.7996 75.5,33C 72.1667,33.6667 68.8333,33.6667 65.5,33C 67.3197,32.7996 68.653,31.9663 69.5,30.5 Z"/></g>
<g><path style="opacity:1" fill="#faf5f8" d="M 71.5,30.5 C 70.8333,30.5 70.1667,30.5 69.5,30.5C 66.6846,28.2699 67.0179,26.6032 70.5,25.5C 73.7187,26.866 74.0521,28.5326 71.5,30.5 Z"/></g>
<g><path style="opacity:1" fill="#1eb7df" d="M 95.5,34.5 C 95.5,35.1667 95.1667,35.5 94.5,35.5C 93.1667,35.5 91.8333,35.5 90.5,35.5C 90.4326,36.9587 90.7659,38.2921 91.5,39.5C 90.0413,39.4326 88.7079,39.7659 87.5,40.5C 87.0686,34.2586 89.7353,32.2586 95.5,34.5 Z"/></g>
<g><path style="opacity:1" fill="#f3fdfb" d="M 94.5,35.5 C 94.9118,37.9726 93.9118,39.3059 91.5,39.5C 90.7659,38.2921 90.4326,36.9587 90.5,35.5C 91.8333,35.5 93.1667,35.5 94.5,35.5 Z"/></g>
<g><path style="opacity:1" fill="#24aaad" d="M 52.5,34.5 C 53.1098,35.391 53.4431,36.391 53.5,37.5C 51.1502,39.9992 48.4836,41.9992 45.5,43.5C 43.3686,41.1505 43.0353,38.4838 44.5,35.5C 46.9544,33.3415 49.6211,33.0082 52.5,34.5 Z"/></g>
<g><path style="opacity:1" fill="#f3fdfd" d="M 47.5,35.5 C 48.5,35.5 49.5,35.5 50.5,35.5C 50.4261,39.5412 49.0928,40.2079 46.5,37.5C 46.8627,36.8165 47.1961,36.1499 47.5,35.5 Z"/></g>
<g><path style="opacity:1" fill="#1a65a4" d="M 95.5,34.5 C 97.385,36.7954 97.885,39.462 97,42.5C 94.833,43.4881 92.9997,44.8214 91.5,46.5C 89.8079,44.7952 88.4746,42.7952 87.5,40.5C 88.7079,39.7659 90.0413,39.4326 91.5,39.5C 93.9118,39.3059 94.9118,37.9726 94.5,35.5C 95.1667,35.5 95.5,35.1667 95.5,34.5 Z"/></g>
<g><path style="opacity:1" fill="#ed4925" d="M 60.5,39.5 C 61.2294,41.9931 62.0628,44.3264 63,46.5C 61.4293,44.0771 59.2626,42.7438 56.5,42.5C 57.4363,41.0256 58.7697,40.0256 60.5,39.5 Z"/></g>
<g><path style="opacity:1" fill="#000000" d="M 224.5,41.5 C 226.5,41.5 228.5,41.5 230.5,41.5C 230.5,51.8333 230.5,62.1667 230.5,72.5C 228.5,72.5 226.5,72.5 224.5,72.5C 224.5,62.1667 224.5,51.8333 224.5,41.5 Z"/></g>
<g><path style="opacity:1" fill="#f48a12" d="M 63.5,35.5 C 62.5,36.8333 61.5,38.1667 60.5,39.5C 58.7697,40.0256 57.4363,41.0256 56.5,42.5C 56.5,43.1667 56.1667,43.5 55.5,43.5C 55.7373,42.209 55.404,41.209 54.5,40.5C 54.5,39.8333 54.5,39.1667 54.5,38.5C 57.549,37.3529 60.549,36.3529 63.5,35.5 Z"/></g>
<g><path style="opacity:1" fill="#010101" d="M 213.5,42.5 C 219.158,41.6794 220.825,43.846 218.5,49C 212.741,50.1387 211.074,47.972 213.5,42.5 Z"/></g>
<g><path style="opacity:1" fill="#147579" d="M 53.5,37.5 C 54.1667,37.5 54.5,37.8333 54.5,38.5C 54.5,39.1667 54.5,39.8333 54.5,40.5C 52.3229,44.7836 49.3229,45.7836 45.5,43.5C 48.4836,41.9992 51.1502,39.9992 53.5,37.5 Z"/></g>
<g><path style="opacity:1" fill="#9e9e9e" d="M 128.5,44.5 C 133.975,43.5111 139.642,43.1778 145.5,43.5C 145.802,46.0593 145.468,48.3926 144.5,50.5C 144.5,48.5 144.5,46.5 144.5,44.5C 139.167,44.5 133.833,44.5 128.5,44.5 Z"/></g>
<g><path style="opacity:1" fill="#040404" d="M 128.5,44.5 C 133.833,44.5 139.167,44.5 144.5,44.5C 144.5,46.5 144.5,48.5 144.5,50.5C 141.833,50.5 139.167,50.5 136.5,50.5C 136.5,52.1667 136.5,53.8333 136.5,55.5C 139.167,55.5 141.833,55.5 144.5,55.5C 144.5,57.5 144.5,59.5 144.5,61.5C 141.833,61.5 139.167,61.5 136.5,61.5C 136.5,65.1667 136.5,68.8333 136.5,72.5C 133.833,72.5 131.167,72.5 128.5,72.5C 128.5,63.1667 128.5,53.8333 128.5,44.5 Z"/></g>
<g><path style="opacity:1" fill="#898989" d="M 269.5,44.5 C 267.167,44.5 264.833,44.5 262.5,44.5C 262.5,53.8333 262.5,63.1667 262.5,72.5C 261.506,63.0144 261.173,53.3478 261.5,43.5C 264.385,43.1936 267.052,43.5269 269.5,44.5 Z"/></g>
<g><path style="opacity:1" fill="#020202" d="M 269.5,44.5 C 273.47,49.4756 277.47,54.4756 281.5,59.5C 281.783,60.2891 282.283,60.9558 283,61.5C 283.499,55.8431 283.666,50.1764 283.5,44.5C 285.833,44.5 288.167,44.5 290.5,44.5C 290.5,53.8333 290.5,63.1667 290.5,72.5C 287.813,72.6641 285.146,72.4974 282.5,72C 278.212,66.5897 274.045,61.0897 270,55.5C 269.501,61.1569 269.334,66.8236 269.5,72.5C 267.167,72.5 264.833,72.5 262.5,72.5C 262.5,63.1667 262.5,53.8333 262.5,44.5C 264.833,44.5 267.167,44.5 269.5,44.5 Z"/></g>
<g><path style="opacity:1" fill="#767676" d="M 283.5,44.5 C 283.666,50.1764 283.499,55.8431 283,61.5C 282.283,60.9558 281.783,60.2891 281.5,59.5C 282.167,54.5 282.833,49.5 283.5,44.5 Z"/></g>
<g><path style="opacity:1" fill="#0fa8d9" d="M 38.5,37.5 C 39.7777,37.7822 40.7777,38.4489 41.5,39.5C 43.9321,44.13 45.2654,49.13 45.5,54.5C 43.1448,55.5218 41.4782,57.1884 40.5,59.5C 37.4679,52.5032 36.8012,45.1698 38.5,37.5 Z"/></g>
<g><path style="opacity:1" fill="#f79c3c" d="M 55.5,43.5 C 55.3915,45.5138 56.0582,47.1805 57.5,48.5C 56.2223,48.7822 55.2223,49.4489 54.5,50.5C 54.5,49.5 54.5,48.5 54.5,47.5C 51.0464,47.2668 50.0464,48.6001 51.5,51.5C 50.7611,51.369 50.0944,51.5357 49.5,52C 51.5,52.3333 53.5,52.6667 55.5,53C 52.9488,53.0023 50.9488,53.8356 49.5,55.5C 46.8663,52.7841 46.8663,49.9508 49.5,47C 51.8525,46.2874 53.8525,45.1207 55.5,43.5 Z"/></g>
<g><path style="opacity:1" fill="#8fa320" d="M 91.5,46.5 C 91.5,46.8333 91.5,47.1667 91.5,47.5C 90.8333,47.5 90.5,47.8333 90.5,48.5C 88.1707,46.9976 86.8373,47.6643 86.5,50.5C 85.2719,51.3065 84.2719,52.3065 83.5,53.5C 82.8888,47.1001 85.5555,44.7668 91.5,46.5 Z"/></g>
<g><path style="opacity:1" fill="#fbfcf9" d="M 90.5,48.5 C 90.1627,51.3357 88.8293,52.0024 86.5,50.5C 86.8373,47.6643 88.1707,46.9976 90.5,48.5 Z"/></g>
<g><path style="opacity:1" fill="#060606" d="M 327.5,47.5 C 327.5,49.5 327.5,51.5 327.5,53.5C 328.833,53.5 330.167,53.5 331.5,53.5C 331.5,55.1667 331.5,56.8333 331.5,58.5C 330.167,58.5 328.833,58.5 327.5,58.5C 327.5,63.1667 327.5,67.8333 327.5,72.5C 325.5,72.5 323.5,72.5 321.5,72.5C 321.818,67.9677 321.485,63.6344 320.5,59.5C 319.307,59.0296 318.64,58.0296 318.5,56.5C 319.795,53.6205 320.462,50.6205 320.5,47.5C 322.833,47.5 325.167,47.5 327.5,47.5 Z"/></g>
<g><path style="opacity:1" fill="#fdfaee" d="M 54.5,50.5 C 53.791,51.404 52.791,51.7373 51.5,51.5C 50.0464,48.6001 51.0464,47.2668 54.5,47.5C 54.5,48.5 54.5,49.5 54.5,50.5 Z"/></g>
<g><path style="opacity:1" fill="#1777b4" d="M 78.5,52.5 C 79.6828,53.5045 81.0161,54.3378 82.5,55C 81.552,55.4828 80.552,55.6495 79.5,55.5C 79.5,56.5 79.5,57.5 79.5,58.5C 78.5,58.5 77.5,58.5 76.5,58.5C 76.7678,60.099 76.4345,61.4324 75.5,62.5C 75.2562,52.55 73.9228,52.2167 71.5,61.5C 70.8333,61.1667 70.1667,60.8333 69.5,60.5C 69.2115,58.475 68.8782,56.475 68.5,54.5C 70.8293,56.0024 72.1627,55.3357 72.5,52.5C 73.7498,52.4226 74.5831,51.756 75,50.5C 75.8159,51.8228 76.9826,52.4894 78.5,52.5 Z"/></g>
<g><path style="opacity:1" fill="#0b78d0" d="M 99.5,37.5 C 100.609,37.5569 101.609,37.8902 102.5,38.5C 104.006,44.7225 103.673,50.7225 101.5,56.5C 101.631,55.6236 101.298,54.9569 100.5,54.5C 98.7567,56.0383 96.7567,57.0383 94.5,57.5C 95.6207,50.5538 97.2874,43.8872 99.5,37.5 Z"/></g>
<g><path style="opacity:1" fill="#050505" d="M 154.5,52.5 C 157.602,52.154 160.435,52.8207 163,54.5C 165.381,53.565 167.881,53.2317 170.5,53.5C 170.5,59.8333 170.5,66.1667 170.5,72.5C 167.881,72.7683 165.381,72.435 163,71.5C 157.499,74.6923 152.833,73.6923 149,68.5C 146.024,61.4622 147.857,56.1289 154.5,52.5 Z"/></g>
<g><path style="opacity:1" fill="#050505" d="M 303.5,52.5 C 311.706,52.3746 316.039,56.3746 316.5,64.5C 311.833,64.5 307.167,64.5 302.5,64.5C 302.077,67.2431 303.244,68.5765 306,68.5C 308.919,66.9278 312.085,66.2612 315.5,66.5C 315.099,70.0698 313.099,72.2364 309.5,73C 298.334,74.1713 293.834,69.338 296,58.5C 297.542,55.1077 300.042,53.1077 303.5,52.5 Z"/></g>
<g><path style="opacity:1" fill="#1f6f22" d="M 91.5,47.5 C 93.2132,48.6354 93.8799,50.302 93.5,52.5C 90.8127,52.3359 88.146,52.5026 85.5,53C 88.1125,54.0712 88.1125,54.9045 85.5,55.5C 84.5,55.1667 83.8333,54.5 83.5,53.5C 84.2719,52.3065 85.2719,51.3065 86.5,50.5C 88.8293,52.0024 90.1627,51.3357 90.5,48.5C 90.5,47.8333 90.8333,47.5 91.5,47.5 Z"/></g>
<g><path style="opacity:1" fill="#0b0b0b" d="M 195.5,61.5 C 194.518,64.9619 194.185,68.6286 194.5,72.5C 192.5,72.5 190.5,72.5 188.5,72.5C 188.817,68.2984 188.483,64.2984 187.5,60.5C 186.415,58.4178 184.915,58.0844 183,59.5C 182.501,63.8206 182.334,68.1539 182.5,72.5C 180.167,72.5 177.833,72.5 175.5,72.5C 175.5,66.1667 175.5,59.8333 175.5,53.5C 178.249,53.2739 180.916,53.6072 183.5,54.5C 187.783,51.8574 191.616,52.524 195,56.5C 198.527,51.5309 202.527,51.1976 207,55.5C 207.499,61.1569 207.666,66.8236 207.5,72.5C 205.167,72.5 202.833,72.5 200.5,72.5C 200.666,68.1539 200.499,63.8206 200,59.5C 197.499,57.9442 195.999,58.6108 195.5,61.5 Z"/></g>
<g><path style="opacity:1" fill="#000000" d="M 212.5,53.5 C 214.833,53.5 217.167,53.5 219.5,53.5C 219.5,59.8333 219.5,66.1667 219.5,72.5C 217.167,72.5 214.833,72.5 212.5,72.5C 212.5,66.1667 212.5,59.8333 212.5,53.5 Z"/></g>
<g><path style="opacity:1" fill="#060606" d="M 233.5,54.5 C 235.966,53.3659 238.633,53.1993 241.5,54C 243.127,56.7542 244.627,59.5875 246,62.5C 247.753,59.9952 249.253,57.3286 250.5,54.5C 253.167,53.1667 255.833,53.1667 258.5,54.5C 253.627,63.7467 248.627,72.9134 243.5,82C 241.098,82.8141 238.765,82.6474 236.5,81.5C 238.372,77.5879 240.372,73.7546 242.5,70C 239.347,64.8523 236.347,59.6857 233.5,54.5 Z"/></g>
<g><path style="opacity:1" fill="#ee2b0a" d="M 57.5,48.5 C 58.6122,55.0519 55.9455,57.3852 49.5,55.5C 50.9488,53.8356 52.9488,53.0023 55.5,53C 53.5,52.6667 51.5,52.3333 49.5,52C 50.0944,51.5357 50.7611,51.369 51.5,51.5C 52.791,51.7373 53.791,51.404 54.5,50.5C 55.2223,49.4489 56.2223,48.7822 57.5,48.5 Z"/></g>
<g><path style="opacity:1" fill="#0d9dcb" d="M 78.5,52.5 C 76.9826,52.4894 75.8159,51.8228 75,50.5C 74.5831,51.756 73.7498,52.4226 72.5,52.5C 70.1707,50.9976 68.8373,51.6643 68.5,54.5C 67.5041,54.4142 66.6708,54.7476 66,55.5C 66.3308,57.0187 66.1641,58.352 65.5,59.5C 64.1667,59.8333 62.8333,60.1667 61.5,60.5C 61.5,58.8333 61.5,57.1667 61.5,55.5C 60.448,55.6495 59.448,55.4828 58.5,55C 62.1317,52.3702 65.465,49.3702 68.5,46C 70.3668,45.2888 71.8668,45.7888 73,47.5C 73.4828,46.552 73.6495,45.552 73.5,44.5C 74.5,44.5 75.5,44.5 76.5,44.5C 76.1072,47.5133 76.7739,50.1799 78.5,52.5 Z"/></g>
<g><path style="opacity:1" fill="#eefbf9" d="M 72.5,52.5 C 72.1627,55.3357 70.8293,56.0024 68.5,54.5C 68.8373,51.6643 70.1707,50.9976 72.5,52.5 Z"/></g>
<g><path style="opacity:1" fill="#eef8f9" d="M 68.5,54.5 C 68.8782,56.475 69.2115,58.475 69.5,60.5C 68.8166,62.1765 67.4832,62.8432 65.5,62.5C 65.5,61.5 65.5,60.5 65.5,59.5C 66.1641,58.352 66.3308,57.0187 66,55.5C 66.6708,54.7476 67.5041,54.4142 68.5,54.5 Z"/></g>
<g><path style="opacity:1" fill="#3a6d54" d="M 93.5,52.5 C 93.0107,55.324 91.344,56.6574 88.5,56.5C 87.8333,56.5 87.1667,56.5 86.5,56.5C 85.8333,56.5 85.5,56.1667 85.5,55.5C 88.1125,54.9045 88.1125,54.0712 85.5,53C 88.146,52.5026 90.8127,52.3359 93.5,52.5 Z"/></g>
<g><path style="opacity:1" fill="#593579" d="M 86.5,56.5 C 87.1667,56.5 87.8333,56.5 88.5,56.5C 88.0679,57.7095 87.4013,58.7095 86.5,59.5C 86.5,58.5 86.5,57.5 86.5,56.5 Z"/></g>
<g><path style="opacity:1" fill="#eef9f8" d="M 75.5,62.5 C 73.901,62.7678 72.5676,62.4345 71.5,61.5C 73.9228,52.2167 75.2562,52.55 75.5,62.5 Z"/></g>
<g><path style="opacity:1" fill="#efefef" d="M 157.5,58.5 C 163.643,59.0262 164.976,61.8595 161.5,67C 156.504,67.6643 154.67,65.4977 156,60.5C 156.717,59.9558 157.217,59.2891 157.5,58.5 Z"/></g>
<g><path style="opacity:1" fill="#d0d0d0" d="M 303.5,57.5 C 305.977,57.0508 307.977,57.7175 309.5,59.5C 307.167,60.8333 304.833,60.8333 302.5,59.5C 302.863,58.8165 303.196,58.1499 303.5,57.5 Z"/></g>
<g><path style="opacity:1" fill="#898989" d="M 327.5,47.5 C 328.451,48.9187 328.784,50.5853 328.5,52.5C 329.833,52.5 331.167,52.5 332.5,52.5C 332.5,54.8333 332.5,57.1667 332.5,59.5C 331.167,59.5 329.833,59.5 328.5,59.5C 328.5,64.1667 328.5,68.8333 328.5,73.5C 325.833,73.5 323.167,73.5 320.5,73.5C 320.5,68.8333 320.5,64.1667 320.5,59.5C 321.485,63.6344 321.818,67.9677 321.5,72.5C 323.5,72.5 325.5,72.5 327.5,72.5C 327.5,67.8333 327.5,63.1667 327.5,58.5C 328.833,58.5 330.167,58.5 331.5,58.5C 331.5,56.8333 331.5,55.1667 331.5,53.5C 330.167,53.5 328.833,53.5 327.5,53.5C 327.5,51.5 327.5,49.5 327.5,47.5 Z"/></g>
<g><path style="opacity:1" fill="#075dcb" d="M 101.5,56.5 C 99.443,64.554 94.7763,70.554 87.5,74.5C 89.3822,68.6301 91.7155,62.9634 94.5,57.5C 96.7567,57.0383 98.7567,56.0383 100.5,54.5C 101.298,54.9569 101.631,55.6236 101.5,56.5 Z"/></g>
<g><path style="opacity:1" fill="#43acd1" d="M 61.5,62.5 C 62.4908,64.1227 61.8241,65.1227 59.5,65.5C 58.8166,63.8235 57.4832,63.1568 55.5,63.5C 55.0882,65.9726 56.0882,67.3059 58.5,67.5C 59.2625,68.2679 60.2625,68.7679 61.5,69C 58.6353,69.1829 55.9686,69.6829 53.5,70.5C 51.3198,65.7879 52.6531,62.4546 57.5,60.5C 59.0729,60.7517 60.4062,61.4183 61.5,62.5 Z"/></g>
<g><path style="opacity:1" fill="#0e83d3" d="M 45.5,54.5 C 46.7347,57.3013 48.2347,59.9679 50,62.5C 49.0225,69.0534 51.5225,73.5534 57.5,76C 55.4021,75.9678 53.4021,75.3011 51.5,74C 46.4403,70.122 42.7736,65.2887 40.5,59.5C 41.4782,57.1884 43.1448,55.5218 45.5,54.5 Z"/></g>
<g><path style="opacity:1" fill="#f3fcfb" d="M 59.5,65.5 C 59.6716,66.4916 59.3382,67.1583 58.5,67.5C 56.0882,67.3059 55.0882,65.9726 55.5,63.5C 57.4832,63.1568 58.8166,63.8235 59.5,65.5 Z"/></g>
<g><path style="opacity:1" fill="#0b4f9b" d="M 79.5,58.5 C 79.5,59.8333 79.5,61.1667 79.5,62.5C 79.1667,63.5 78.5,64.1667 77.5,64.5C 72.8333,64.5 68.1667,64.5 63.5,64.5C 64.2183,69.4138 62.2183,72.4138 57.5,73.5C 55.739,72.9649 54.4057,71.9649 53.5,70.5C 55.9686,69.6829 58.6353,69.1829 61.5,69C 60.2625,68.7679 59.2625,68.2679 58.5,67.5C 59.3382,67.1583 59.6716,66.4916 59.5,65.5C 61.8241,65.1227 62.4908,64.1227 61.5,62.5C 61.5,61.8333 61.5,61.1667 61.5,60.5C 62.8333,60.1667 64.1667,59.8333 65.5,59.5C 65.5,60.5 65.5,61.5 65.5,62.5C 67.4832,62.8432 68.8166,62.1765 69.5,60.5C 70.1667,60.8333 70.8333,61.1667 71.5,61.5C 72.5676,62.4345 73.901,62.7678 75.5,62.5C 76.4345,61.4324 76.7678,60.099 76.5,58.5C 77.5,58.5 78.5,58.5 79.5,58.5 Z"/></g>
<g><path style="opacity:1" fill="#f8e9ee" d="M 84.5,62.5 C 85.3007,64.0418 85.634,65.7085 85.5,67.5C 84.5,67.5 83.5,67.5 82.5,67.5C 80.8303,64.8367 81.4969,63.17 84.5,62.5 Z"/></g>
<g><path style="opacity:1" fill="#f54080" d="M 86.5,59.5 C 86.5,60.1667 86.5,60.8333 86.5,61.5C 85.5084,61.3284 84.8417,61.6618 84.5,62.5C 81.4969,63.17 80.8303,64.8367 82.5,67.5C 80.6203,67.2291 79.287,67.8958 78.5,69.5C 77.5489,68.0813 77.2155,66.4147 77.5,64.5C 78.5,64.1667 79.1667,63.5 79.5,62.5C 81.7513,61.3052 84.0846,60.3052 86.5,59.5 Z"/></g>
<g><path style="opacity:1" fill="#15add9" d="M 72.5,67.5 C 71.8333,67.5 71.5,67.8333 71.5,68.5C 69.8212,68.2852 68.8212,68.9519 68.5,70.5C 66.9382,70.7329 65.6049,71.3995 64.5,72.5C 65.4605,67.6985 68.1272,66.0319 72.5,67.5 Z"/></g>
<g><path style="opacity:1" fill="#f2fafa" d="M 71.5,68.5 C 72.4345,69.5676 72.7678,70.901 72.5,72.5C 70.5168,72.8432 69.1834,72.1765 68.5,70.5C 68.8212,68.9519 69.8212,68.2852 71.5,68.5 Z"/></g>
<g><path style="opacity:1" fill="#c8333a" d="M 86.5,61.5 C 90.5014,66.5289 89.5014,70.5289 83.5,73.5C 82.2054,72.9017 80.8721,72.4017 79.5,72C 78.7476,71.3292 78.4142,70.4959 78.5,69.5C 79.287,67.8958 80.6203,67.2291 82.5,67.5C 83.5,67.5 84.5,67.5 85.5,67.5C 85.634,65.7085 85.3007,64.0418 84.5,62.5C 84.8417,61.6618 85.5084,61.3284 86.5,61.5 Z"/></g>
<g><path style="opacity:1" fill="#8f8f8f" d="M 187.5,60.5 C 188.483,64.2984 188.817,68.2984 188.5,72.5C 190.5,72.5 192.5,72.5 194.5,72.5C 194.185,68.6286 194.518,64.9619 195.5,61.5C 195.5,65.5 195.5,69.5 195.5,73.5C 192.833,73.5 190.167,73.5 187.5,73.5C 187.5,69.1667 187.5,64.8333 187.5,60.5 Z"/></g>
<g><path style="opacity:1" fill="#3673b2" d="M 71.5,68.5 C 71.5,67.8333 71.8333,67.5 72.5,67.5C 75.2921,68.3918 76.6254,70.3918 76.5,73.5C 75.8501,73.1961 75.1835,72.8627 74.5,72.5C 71.7877,74.2603 68.7877,74.927 65.5,74.5C 63.3023,74.5912 62.9689,73.9245 64.5,72.5C 65.6049,71.3995 66.9382,70.7329 68.5,70.5C 69.1834,72.1765 70.5168,72.8432 72.5,72.5C 72.7678,70.901 72.4345,69.5676 71.5,68.5 Z"/></g>
<g><path style="opacity:1" fill="#1560cf" d="M 87.5,74.5 C 86.2015,76.0986 84.5348,76.5986 82.5,76C 84.0249,74.9914 85.6916,74.4914 87.5,74.5 Z"/></g>
<g><path style="opacity:1" fill="#093b85" d="M 76.5,73.5 C 74.9982,78.0422 71.6649,79.2089 66.5,77C 65.7476,76.3292 65.4142,75.4959 65.5,74.5C 68.7877,74.927 71.7877,74.2603 74.5,72.5C 75.1835,72.8627 75.8501,73.1961 76.5,73.5 Z"/></g>
<g><path style="opacity:1" fill="#091a21" d="M 39.5,79.5 C 38.8902,80.391 38.5569,81.391 38.5,82.5C 37.1611,78.8453 34.4944,77.1786 30.5,77.5C 27.4741,76.1761 25.1408,74.1761 23.5,71.5C 23.6082,70.5581 23.9415,69.7247 24.5,69C 27.634,68.2099 30.634,68.5432 33.5,70C 31.1667,70.3333 28.8333,70.6667 26.5,71C 31.2404,73.3597 35.5737,76.1931 39.5,79.5 Z"/></g>
<g><path style="opacity:1" fill="#ebaf82" d="M 30.5,77.5 C 34.4944,77.1786 37.1611,78.8453 38.5,82.5C 38.5,83.5 38.5,84.5 38.5,85.5C 36.549,85.7733 35.049,85.1066 34,83.5C 33.586,83.9574 33.086,84.2907 32.5,84.5C 31.3331,82.9208 29.9998,81.5875 28.5,80.5C 29.1667,79.5 29.8333,78.5 30.5,77.5 Z"/></g>
<g><path style="opacity:1" fill="#0d1b20" d="M 97.5,86.5 C 91.6427,89.5949 85.6427,92.4282 79.5,95C 76.9615,95.7958 74.6282,95.6291 72.5,94.5C 73.8734,94.6567 75.2068,94.49 76.5,94C 83.1667,90 89.8333,86 96.5,82C 91.9794,81.585 87.9794,82.9184 84.5,86C 83.5,86.6667 82.5,86.6667 81.5,86C 86.7864,81.6818 92.7864,79.6818 99.5,80C 101.007,80.8373 101.507,82.0039 101,83.5C 99.4815,84.1634 98.3149,85.1634 97.5,86.5 Z"/></g>
<g><path style="opacity:1" fill="#0b181d" d="M 46.5,83.5 C 48.2838,83.8925 49.9505,84.5592 51.5,85.5C 51.87,89.1859 50.5367,90.1859 47.5,88.5C 47.3713,86.7839 47.038,85.1172 46.5,83.5 Z"/></g>
<g><path style="opacity:1" fill="#e4a075" d="M 79.5,82.5 C 84.4106,82.8357 84.0772,83.5024 78.5,84.5C 77.8333,84.3333 77.1667,84.1667 76.5,84C 77.7375,83.7679 78.7375,83.2679 79.5,82.5 Z"/></g>
<g><path style="opacity:1" fill="#f6cca4" d="M 64.5,86.5 C 64.5,87.8333 64.5,89.1667 64.5,90.5C 63.0222,90.762 61.6888,90.4287 60.5,89.5C 60.0576,88.2613 59.3909,87.2613 58.5,86.5C 58.6309,85.6236 58.2975,84.9569 57.5,84.5C 56.5159,87.4281 56.1826,90.4281 56.5,93.5C 55.4168,93.5394 54.4168,93.8728 53.5,94.5C 52.8182,93.7573 52.1515,93.0906 51.5,92.5C 50.1667,91.5 48.8333,90.5 47.5,89.5C 47.5,89.1667 47.5,88.8333 47.5,88.5C 50.5367,90.1859 51.87,89.1859 51.5,85.5C 54.4028,84.0513 57.2361,82.3846 60,80.5C 62.8585,81.5201 64.3585,83.5201 64.5,86.5 Z"/></g>
<g><path style="opacity:1" fill="#db7e51" d="M 28.5,80.5 C 29.9998,81.5875 31.3331,82.9208 32.5,84.5C 33.086,84.2907 33.586,83.9574 34,83.5C 35.049,85.1066 36.549,85.7733 38.5,85.5C 38.5,84.5 38.5,83.5 38.5,82.5C 39.3092,84.0276 39.9759,85.6943 40.5,87.5C 39.5233,90.2869 39.19,93.2869 39.5,96.5C 36.9065,92.0707 33.4065,88.4041 29,85.5C 27.5456,83.7561 27.3789,82.0894 28.5,80.5 Z"/></g>
<g><path style="opacity:1" fill="#e9a97c" d="M 39.5,79.5 C 43.1834,78.6798 45.5168,80.0131 46.5,83.5C 47.038,85.1172 47.3713,86.7839 47.5,88.5C 47.5,88.8333 47.5,89.1667 47.5,89.5C 48.2122,91.9279 49.2122,94.2612 50.5,96.5C 48.604,97.4656 46.604,97.7989 44.5,97.5C 42.2057,94.6305 40.8723,91.2971 40.5,87.5C 39.9759,85.6943 39.3092,84.0276 38.5,82.5C 38.5569,81.391 38.8902,80.391 39.5,79.5 Z"/></g>
<g><path style="opacity:1" fill="#232c2e" d="M 67.5,91.5 C 69.4341,92.1103 71.1007,93.1103 72.5,94.5C 71.5,94.5 70.5,94.5 69.5,94.5C 68.8333,93.5 68.1667,92.5 67.5,91.5 Z"/></g>
<g><path style="opacity:1" fill="#f2c296" d="M 97.5,86.5 C 103.155,90.823 108.488,95.4897 113.5,100.5C 100.401,98.6038 87.4006,97.4372 74.5,97C 72.5087,96.6264 70.842,95.793 69.5,94.5C 70.5,94.5 71.5,94.5 72.5,94.5C 74.6282,95.6291 76.9615,95.7958 79.5,95C 85.6427,92.4282 91.6427,89.5949 97.5,86.5 Z"/></g>
<g><path style="opacity:1" fill="#ebad81" d="M 58.5,86.5 C 59.3909,87.2613 60.0576,88.2613 60.5,89.5C 61.6888,90.4287 63.0222,90.762 64.5,90.5C 64.5,89.1667 64.5,87.8333 64.5,86.5C 65.7368,87.9649 66.7368,89.6316 67.5,91.5C 68.1667,92.5 68.8333,93.5 69.5,94.5C 70.842,95.793 72.5087,96.6264 74.5,97C 87.4006,97.4372 100.401,98.6038 113.5,100.5C 115.09,100.628 116.423,101.295 117.5,102.5C 115.637,106.25 113.303,109.583 110.5,112.5C 107.209,109.516 103.542,107.016 99.5,105C 89.8435,103.967 80.1769,102.967 70.5,102C 65.5573,99.8941 62.224,96.3941 60.5,91.5C 59.8333,91.5 59.1667,91.5 58.5,91.5C 58.5,89.8333 58.5,88.1667 58.5,86.5 Z"/></g>
<g><path style="opacity:1" fill="#ca4722" d="M 40.5,87.5 C 40.8723,91.2971 42.2057,94.6305 44.5,97.5C 45.6302,103.1 48.4636,104.767 53,102.5C 57.4295,106.586 62.5962,107.919 68.5,106.5C 73.8893,107.007 79.2227,107.84 84.5,109C 82.6547,110.128 80.6547,110.628 78.5,110.5C 67.8229,110.665 57.4895,108.831 47.5,105C 43.9295,102.932 41.2629,100.099 39.5,96.5C 39.19,93.2869 39.5233,90.2869 40.5,87.5 Z"/></g>
<g><path style="opacity:1" fill="#d36137" d="M 58.5,86.5 C 58.5,88.1667 58.5,89.8333 58.5,91.5C 57.2848,92.779 57.6182,93.779 59.5,94.5C 59.5106,96.6859 60.5106,97.5192 62.5,97C 61.944,96.6174 61.6107,96.1174 61.5,95.5C 61.1667,94.1667 60.8333,92.8333 60.5,91.5C 62.224,96.3941 65.5573,99.8941 70.5,102C 80.1769,102.967 89.8435,103.967 99.5,105C 103.542,107.016 107.209,109.516 110.5,112.5C 108.854,114.812 106.854,116.812 104.5,118.5C 96.8065,112.486 88.1398,109.819 78.5,110.5C 80.6547,110.628 82.6547,110.128 84.5,109C 79.2227,107.84 73.8893,107.007 68.5,106.5C 62.5962,107.919 57.4295,106.586 53,102.5C 48.4636,104.767 45.6302,103.1 44.5,97.5C 46.604,97.7989 48.604,97.4656 50.5,96.5C 49.2122,94.2612 48.2122,91.9279 47.5,89.5C 48.8333,90.5 50.1667,91.5 51.5,92.5C 51.4012,95.6727 52.0678,98.6727 53.5,101.5C 56.4939,103.247 59.6606,104.58 63,105.5C 64.2575,105.15 64.5908,104.483 64,103.5C 60.5134,100.855 58.0134,97.5214 56.5,93.5C 56.1826,90.4281 56.5159,87.4281 57.5,84.5C 58.2975,84.9569 58.6309,85.6236 58.5,86.5 Z"/></g>
<g><path style="opacity:1" fill="#e3966a" d="M 51.5,92.5 C 52.1515,93.0906 52.8182,93.7573 53.5,94.5C 54.4168,93.8728 55.4168,93.5394 56.5,93.5C 58.0134,97.5214 60.5134,100.855 64,103.5C 64.5908,104.483 64.2575,105.15 63,105.5C 59.6606,104.58 56.4939,103.247 53.5,101.5C 52.0678,98.6727 51.4012,95.6727 51.5,92.5 Z"/></g>
<g><path style="opacity:1" fill="#f8f8f8" d="M 59.5,94.5 C 60.1667,94.8333 60.8333,95.1667 61.5,95.5C 61.6107,96.1174 61.944,96.6174 62.5,97C 60.5106,97.5192 59.5106,96.6859 59.5,94.5 Z"/></g>
<g><path style="opacity:1" fill="#090d13" d="M 58.5,91.5 C 59.1667,91.5 59.8333,91.5 60.5,91.5C 60.8333,92.8333 61.1667,94.1667 61.5,95.5C 60.8333,95.1667 60.1667,94.8333 59.5,94.5C 57.6182,93.779 57.2848,92.779 58.5,91.5 Z"/></g>
</svg>
